# xmcd
#
# Track frame offsets: 
#        150
#        21650
#        37512
#        57882
#        76215
#        93374
#        111034
#        129681
#        146769
#        168504
#        187358
#        204529
#
# Disc length: 2956 seconds
#
# Revision: 0
# Processed by: cddbd v1.5.2PL0 Copyright (c) Steve Scherf et al.
# Submitted via: ExactAudioCopy v0.99pb3
#
DISCID=a70b8a0c
DTITLE=ดาวตลกเสียงอิสาน - วัยชราขาร็อค
DYEAR=2007
DGENRE=Country
TTITLE0=วัยชราขาร็อค
TTITLE1=นักเลงหมาน้อย
TTITLE2=เจ้าภาพจิ๊กโก๋
TTITLE3=ควายบักตู้
TTITLE4=ในใจอยากได้เหมิดบ้าน
TTITLE5=ด.ช.ปีโป้
TTITLE6=ผู้ว่าราชการ
TTITLE7=ซังคนรูปหล่อ
TTITLE8=ฤกษ์ดาวโจร
TTITLE9=ธุระมันโตจั่งใด
TTITLE10=เฒ่าไฟแรง
TTITLE11=คิดเล่นซื่อๆ
EXTD=
EXTT0=
EXTT1=
EXTT2=
EXTT3=
EXTT4=
EXTT5=
EXTT6=
EXTT7=
EXTT8=
EXTT9=
EXTT10=
EXTT11=
PLAYORDER=
